HIERARCHY
ROOT pelvis
{
  OFFSET 0 100 0
  CHANNELS 6 Xposition Yposition Zposition Zrotation Xrotation Yrotation
  JOINT pelvis_right_femur
  {
    OFFSET -10.78128 -3.44521 -0.5502486
    CHANNELS 3 Zrotation Xrotation Yrotation
    JOINT right_femur_tibia
    {
      OFFSET -0.8047443 -44.0398 -0.1307829
      CHANNELS 3 Zrotation Xrotation Yrotation
      JOINT right_tibia_foot
      {
        OFFSET 3.006224 -47.83518 -5
        CHANNELS 3 Zrotation Xrotation Yrotation
        End Site
        {
          OFFSET 0 -5 15
        }
      }
    }
  }
  JOINT pelvis_left_femur
  {
    OFFSET 10.78128 -3.44521 -0.5502486
    CHANNELS 3 Zrotation Xrotation Yrotation
    JOINT left_femur_tibia
    {
      OFFSET 0.8047443 -44.0398 -0.1307829
      CHANNELS 3 Zrotation Xrotation Yrotation
      JOINT left_tibia_foot
      {
        OFFSET -4.370144 -48.10324 -4.275266
        CHANNELS 3 Zrotation Xrotation Yrotation
        End Site
        {
          OFFSET 0 -5 15
        }
      }
    }
  }
  JOINT pelvis_spine1
  {
    OFFSET 0 6.468898 -3.129235
    CHANNELS 3 Zrotation Xrotation Yrotation
    JOINT spine1
    {
      OFFSET 0 23.15396 4.99043
      CHANNELS 3 Zrotation Xrotation Yrotation
      JOINT spine2
      {
        OFFSET 0 20.79997 -5.064912
        CHANNELS 3 Zrotation Xrotation Yrotation
        JOINT neck
        {
          OFFSET 0 14.38658 9.616178
          CHANNELS 3 Zrotation Xrotation Yrotation
          End Site
          {
            OFFSET 0 20 0
          }
        }
      }
      JOINT right_manubrium
      {
        OFFSET -5.722621 16.35077 3.967754
        CHANNELS 3 Zrotation Xrotation Yrotation
        JOINT right_clavicle
        {
          OFFSET -13.16364 1.694482 -4.693211
          CHANNELS 3 Zrotation Xrotation Yrotation
          JOINT right_humerus
          {
            OFFSET -28.5034 -0.3100689 -2.792744
            CHANNELS 3 Zrotation Xrotation Yrotation
            JOINT right_radius
            {
              OFFSET -25.15693 0.02248979 -1.271978
              CHANNELS 3 Zrotation Xrotation Yrotation
              End Site
              {
                OFFSET -15 0 0
              }
            }
          }
        }
      }
      JOINT left_manubrium
      {
        OFFSET 5.722621 16.35077 3.967754
        CHANNELS 3 Zrotation Xrotation Yrotation
        JOINT left_clavicle
        {
          OFFSET 13.16364 1.694482 -4.693211
          CHANNELS 3 Zrotation Xrotation Yrotation
          JOINT left_humerus
          {
            OFFSET 29.39168 -1.063119 -2.237045
            CHANNELS 3 Zrotation Xrotation Yrotation
            JOINT left_radius
            {
              OFFSET 24.59957 -0.9528479 0.9047498
              CHANNELS 3 Zrotation Xrotation Yrotation
              End Site
              {
                OFFSET 15 -0 -0
              }
            }
          }
        }
      }
    }
  }
}
MOTION
Frames: 19
Frame Time: 0.0416666666667
0 103.5113 0 4.902511 -5.584584 0.307282 -6.617658 2.026083 9.551506 -0 24.10371 -0 -8.930659 -17.22016 -3.14526 -10.43659 13.78754 -22.73602 -0 5.532404 -0 9.218328 -15.80986 31.0762 -8.938398 -4.271133 5.760667 5.488273 10.99573 -10.87746 1.455765 23.96188 5.719449 -3.001141 -23.43264 12.66093 9.033343 -13.40034 19.1648 80.19492 34.03635 -16.14558 -0 0 19.16656 -6.358649 7.776186 -1.98285 4.84726 -21.70048 2.816707 -98.8365 40.45966 26.65588 0 0 -20.03603 -14.56838 12.6775 20.33521
0.4467024 103.3835 0.7735248 4.612527 -5.612443 -0.08970487 -6.064149 -1.170696 9.179799 -0 30.4284 -0 -8.820029 -16.43608 -3.887118 -10.51364 14.23247 -21.93882 -0 5.706927 -0 9.078678 -16.74297 30.5891 -8.70008 -3.815544 5.60033 5.245986 10.86104 -10.76057 1.050631 24.18032 5.924196 -3.335057 -23.04467 12.71619 9.002865 -13.56374 18.98354 80.05855 33.90187 -16.11208 -0 0 19.34575 -6.65888 7.788578 -1.608039 4.710732 -21.51044 2.553194 -98.79799 40.55476 26.92297 0 0 -20.06374 -14.20594 13.38891 20.75203
0.8984049 103.2661 1.823981 4.194688 -5.653519 -0.4250805 -5.238331 -4.677807 8.528648 -0 36.95152 -0 -8.823357 -15.16002 -4.828384 -10.40088 14.96277 -21.12804 -0 5.688722 -0 8.851177 -17.67034 30.07578 -8.293089 -3.438416 5.187785 5.034094 10.67378 -10.8423 0.499049 24.28926 6.201739 -3.791887 -22.56337 12.78402 9.011385 -13.734 18.63883 79.9529 33.7265 -16.17708 -0 0 19.56282 -6.990891 7.794811 -1.189669 4.458314 -21.22479 2.260398 -98.78453 40.56661 27.32237 0 0 -19.82095 -13.90986 13.92244 21.12389
1.227209 103.1042 3.130172 3.656182 -5.568284 -0.6791453 -4.00849 -8.411744 7.618779 -0 42.14455 -0 -8.962448 -14.11187 -5.664392 -10.06782 15.84033 -20.31607 -0 5.531223 -0 8.55739 -18.61298 29.52147 -7.846022 -3.135211 4.723515 4.820799 10.43281 -10.96469 -0.2005245 24.32332 6.625439 -4.261995 -22.03819 12.85616 9.034141 -13.90281 18.18384 79.9563 33.55173 -16.33215 -0 0 19.77499 -7.306409 7.804067 -0.7512617 4.240552 -20.94309 1.976197 -98.63165 40.51473 27.68693 0 0 -19.39076 -13.63063 14.29412 21.44492
1.470656 103.1066 4.715185 2.903916 -5.37833 -0.978624 -2.418586 -12.382 6.4906 -0 45.85522 -0 -9.168921 -13.38275 -6.021395 -9.443103 16.75666 -19.55594 -0 5.346343 -0 8.130808 -19.50511 28.90131 -7.318243 -2.852927 4.364746 4.725614 10.25694 -11.0025 -0.7452765 24.36169 7.032075 -4.546149 -21.52086 12.9502 9.023455 -13.9076 17.67464 80.12327 33.42647 -16.73388 -0 0 19.74151 -7.54682 7.824258 -0.3651977 4.008511 -20.77766 1.821173 -98.25365 40.3749 27.88721 0 0 -18.90833 -13.28663 14.54021 21.67119
1.675393 103.0462 6.422259 2.200994 -4.983587 -1.374806 -0.7352083 -16.72012 5.383592 -0 46.76686 -0 -9.208017 -12.70183 -5.703231 -8.87768 17.6286 -18.72579 -0 5.036416 -0 7.637639 -20.42912 28.22951 -6.855566 -2.479288 4.171689 4.722866 9.967136 -10.88772 -1.029823 24.34843 7.364486 -4.643143 -21.24781 13.10435 8.85475 -13.88984 17.20278 80.38109 33.37472 -17.19811 -0 0 19.53222 -7.712283 7.858155 -0.02125017 3.90883 -20.69931 1.713758 -97.68462 40.13801 27.7661 0 0 -18.68387 -12.83811 14.69001 21.74114
1.8843 102.7816 8.372805 1.63819 -4.329584 -1.823366 0.6441758 -20.97275 4.574643 -0 44.79364 -0 -9.169985 -11.87523 -4.958366 -8.47072 18.41447 -17.84422 -0 4.716938 -0 7.132117 -21.44227 27.47141 -6.504734 -2.163945 4.068592 4.778072 9.590217 -10.67173 -1.12581 24.1936 7.609444 -4.602458 -21.20295 13.23039 8.554445 -13.81105 16.76114 80.76822 33.39988 -17.76781 -0 0 19.0472 -7.8028 7.915784 0.2575793 3.935758 -20.62789 1.669007 -96.99518 39.78277 27.33865 0 0 -18.82438 -12.26081 14.77518 21.61793
2.074212 102.3637 10.64735 1.171446 -3.528334 -1.961846 1.545725 -25.03333 4.409178 -0 40.87595 -0 -9.128126 -10.83782 -3.889451 -8.074544 19.2494 -16.99999 -0 4.496513 -0 6.590916 -22.51752 26.56096 -6.222094 -1.802742 3.904021 4.8878 9.201172 -10.54613 -1.138975 23.93124 7.79635 -4.485275 -21.38089 13.28305 8.221279 -13.75768 16.33479 81.21453 33.50488 -18.39303 -0 0 18.27474 -7.813344 8.002537 0.4526676 3.989416 -20.57127 1.590059 -96.20805 39.33489 26.64122 0 0 -19.24923 -11.57058 14.81324 21.31625
2.278185 101.6737 13.20817 0.975318 -2.61371 -2.143669 2.295851 -28.71638 4.007549 -0 35.18264 -0 -8.880741 -9.894201 -3.175602 -8.070347 19.97738 -16.09346 -0 4.528252 -0 6.003307 -23.59754 25.53334 -6.083768 -1.547005 3.810995 4.961006 8.80852 -10.45044 -1.159503 23.67712 7.990427 -4.329407 -21.67119 13.28939 7.789676 -13.70438 15.89629 81.72524 33.65847 -19.0601 -0 0 17.2845 -7.788041 8.11244 0.6134768 4.098027 -20.56053 1.431141 -95.38685 38.8309 25.7538 0 0 -19.83531 -10.82624 14.78952 20.89667
2.433454 100.8038 16.08732 0.9908501 -1.650428 -2.043822 2.782243 -31.8904 3.559806 -0 29.13502 -0 -8.585787 -9.117411 -2.735601 -8.185396 20.73783 -15.13308 -0 4.843313 -0 5.265779 -24.5726 24.27447 -5.916138 -1.282811 3.670391 4.9911 8.494043 -10.43293 -1.220989 23.48521 8.179001 -4.118518 -21.77378 13.20292 7.278076 -13.66991 15.40659 82.25309 33.84191 -19.73575 -0 0 16.19089 -7.750056 8.244455 0.7987803 4.068339 -20.61814 1.118295 -94.56433 38.29861 24.80213 0 0 -20.3178 -10.06799 14.68847 20.4293
2.547828 99.84842 19.49787 0.9133598 -0.9388938 -1.575985 3.426149 -34.61901 3.357471 -0 24.31314 -0 -8.517098 -8.353779 -2.460663 -8.156143 21.67827 -14.19172 -0 5.933041 -0 4.274352 -25.2514 22.7787 -5.607947 -0.9884863 3.410952 5.029983 8.269498 -10.5255 -1.320454 23.27785 8.410248 -3.8113 -21.82922 13.03483 6.855336 -13.61407 14.84128 82.81547 34.03169 -20.46539 -0 0 14.97063 -7.718825 8.405991 1.024861 3.845654 -20.68033 0.8112717 -93.84676 37.72074 23.99789 0 0 -20.49775 -9.323565 14.49885 19.98976
2.580666 98.93543 23.38656 0.6440215 -0.324424 -0.7145007 4.063231 -36.32432 3.451267 -0 21.93909 -0 -8.781719 -7.586712 -2.433117 -7.692836 22.59271 -13.27944 -0 7.977955 -0 2.885527 -25.31763 20.94505 -5.08527 -0.6439933 2.842042 5.08751 7.98902 -10.88768 -1.531781 23.04823 8.746541 -3.460366 -21.88401 12.8144 6.587302 -13.66148 14.26316 83.34306 34.23657 -21.08883 -0 0 13.73526 -7.714294 8.5994 1.327839 3.325523 -20.72487 0.2627444 -93.31128 37.14847 23.41412 0 0 -20.17501 -8.642724 14.21465 19.63782
2.591515 98.28166 28.03603 0.1890913 0.2465002 0.5017708 4.613824 -36.58284 3.57766 -0 22.41641 -0 -9.429493 -6.773854 -2.867815 -6.72966 23.06785 -12.42104 -0 11.43327 -0 1.008076 -24.22584 18.80301 -4.23939 -0.4048444 2.285133 5.186287 7.865374 -11.23901 -1.86177 23.03051 9.160128 -3.044094 -21.96823 12.50096 6.302647 -13.56784 13.57553 83.98131 34.42766 -21.84705 -0 0 12.33121 -7.737993 8.827761 1.68159 2.712943 -20.71446 -0.2091647 -93.02832 36.52245 23.10136 0 0 -19.68844 -8.02737 13.85285 19.29243
2.690016 97.9653 33.42424 -0.4340136 0.749253 1.773412 5.141662 -35.07818 3.647871 -0 24.80968 -0 -10.2702 -6.389883 -3.693379 -5.630079 22.83717 -11.37958 -0 16.73246 -0 -1.27247 -21.36127 16.62565 -3.065138 -0.6432808 1.630813 5.334527 7.690877 -11.66121 -2.084607 22.83218 9.361123 -2.642303 -21.96521 12.02684 6.011066 -13.39289 12.94044 84.61977 34.62353 -22.57601 -0 0 10.90244 -7.843558 9.094149 2.125137 2.063027 -20.43104 -0.656576 -93.15175 35.8155 23.17968 0 0 -19.18062 -7.502037 13.41863 18.91964
2.715701 98.03578 39.10332 -1.250363 1.034443 2.935051 5.994155 -33.31165 4.001887 -0 26.83088 -0 -11.07378 -6.671005 -4.544237 -4.500536 22.2103 -10.72116 -0 23.5987 -0 -3.642102 -16.45636 14.66483 -1.727576 -0.7408442 1.238531 5.533586 7.636463 -11.85393 -2.293465 22.49877 9.425758 -2.299123 -21.82908 11.41331 5.750403 -13.13327 12.48729 85.27734 34.81927 -23.1154 -0 0 9.54566 -8.026532 9.394852 2.688256 1.598536 -20.06261 -1.030911 -93.36746 35.00934 23.27406 0 0 -18.87662 -6.973587 12.93038 18.46678
2.770336 98.50723 45.15338 -1.792631 0.6407541 3.317373 6.712876 -29.89546 4.255651 -0 28.07301 -0 -11.78325 -7.730618 -5.287526 -3.838145 19.91339 -10.04255 -0 33.07508 -0 -5.612081 -10.06643 13.1371 -0.5027466 -0.8261337 1.332689 5.607211 7.798364 -11.72057 -2.547425 22.40417 9.454416 -1.98959 -21.51352 10.75894 5.546599 -13.1019 12.3382 85.77268 35.0627 -23.19435 -0 0 8.489378 -8.243818 9.75416 3.282242 1.172526 -19.63131 -1.313603 -93.5254 34.12989 23.38799 0 0 -18.72102 -6.385454 12.4326 17.89895
2.869099 99.36101 51.05679 -1.892392 -0.3446996 3.083609 6.990314 -25.07389 4.16103 -0 27.93991 -0 -12.29013 -9.352036 -5.80271 -3.505273 15.58737 -9.347299 -0 43.70875 -0 -6.6076 -3.83664 12.41609 0.189695 -0.4639358 2.071943 5.579921 8.172391 -11.21644 -2.674086 22.59895 9.294353 -1.624175 -20.99367 10.01887 5.501171 -13.25136 12.47366 85.90405 35.34192 -22.69923 -0 0 7.876516 -8.635999 10.13308 4.020542 0.8035052 -19.5789 -1.486656 -93.28895 33.27737 23.1617 0 0 -18.7269 -5.704822 11.95582 17.27692
2.996745 100.3959 56.54818 -1.634354 -1.506787 3.05032 6.648498 -19.27502 3.723936 -0 26.20224 -0 -12.42704 -10.97052 -6.00164 -3.364679 9.373243 -8.434842 -0 52.47619 -0 -6.442685 -0.009406722 12.94018 0.3088015 0.2168978 3.199718 5.565696 8.486672 -10.50512 -2.576315 22.86462 8.891994 -1.168376 -20.3901 9.187053 5.515107 -13.70117 12.77997 85.51848 35.64472 -21.49914 -0 0 7.815198 -9.337017 10.47748 4.941115 0.7444946 -19.78763 -1.532654 -92.79714 32.43157 22.64936 0 0 -19.01691 -4.941635 11.51354 16.61301
3.103512 102.0813 61.91024 -0.6651821 -2.589416 3.079771 5.515108 -12.88902 3.01002 -0 22.87326 -0 -12.0922 -12.23322 -5.759447 -3.418452 1.392357 -7.610505 -0 57.5893 -0 -3.85162 -1.061514 14.28831 -0.3509213 1.196903 4.691593 5.367029 8.7909 -9.523766 -2.340036 23.03519 8.321407 -0.6836429 -19.93658 8.271624 5.627456 -14.23303 13.27203 84.82226 35.873 -19.79133 -0 0 8.245442 -10.36982 10.75091 6.027772 0.9612417 -20.20337 -1.618266 -92.06497 31.64265 22.02112 0 0 -19.37898 -4.181103 11.09582 15.98212
